<?xml version="1.0" standalone="no"?>
<!DOCTYPE svg PUBLIC "-//W3C//DTD SVG 20010904//EN"
 "http://www.w3.org/TR/2001/REC-SVG-20010904/DTD/svg10.dtd">
<svg version="1.0" xmlns="http://www.w3.org/2000/svg"
 width="512.000000pt" height="512.000000pt" viewBox="0 0 512.000000 512.000000"
 preserveAspectRatio="xMidYMid meet">
<metadata>
Created by potrace 1.14, written by Peter Selinger 2001-2017
</metadata>
<g transform="translate(0.000000,512.000000) scale(0.100000,-0.100000)"
fill="#000000" stroke="none">
<path d="M2260 4974 c-140 -80 -273 -156 -295 -169 -22 -12 -242 -138 -490
-280 -247 -142 -475 -272 -506 -289 -389 -217 -582 -334 -595 -358 -12 -23
-14 -226 -14 -1307 0 -950 3 -1287 12 -1306 10 -23 31 -38 128 -92 44 -25 152
-87 600 -343 195 -112 373 -213 395 -226 22 -12 265 -151 540 -308 296 -170
509 -286 525 -286 31 0 -15 -25 535 290 253 145 474 271 490 280 17 9 127 72
245 140 218 125 339 194 665 380 221 125 241 139 254 168 16 34 15 2572 -1
2607 -9 21 -70 69 -88 70 -3 0 -16 8 -30 17 -22 14 -285 164 -420 240 -25 14
-119 68 -210 120 -91 52 -185 106 -210 120 -25 14 -164 94 -309 177 -145 83
-266 151 -268 151 -3 0 -17 8 -31 18 -15 11 -52 33 -82 49 -30 17 -154 87
-275 157 -193 110 -226 126 -265 126 -39 0 -76 -18 -300 -146z"/>
</g>
</svg>
